<svg width="194" height="57" viewBox="0 0 194 57" fill="none" xmlns="http://www.w3.org/2000/svg">
<g clip-path="url(#clip0_2666_666)">
<path d="M0 50.2965V4.01392H7.91044V50.2965H0Z" fill="#00D586"/>
<path d="M21.5067 37.87C22.6167 41.9627 25.322 44.1829 29.2026 44.1829C31.7679 44.1829 34.1279 43.2828 35.7324 41.6176C36.0776 41.34 36.565 40.5751 37.3276 39.4651L43.988 42.2403C42.0454 45.5704 41.4228 46.2655 39.4777 47.8605C36.5388 50.1266 32.9277 51.3469 29.2166 51.3285C20.2661 51.3285 13.3981 44.1829 13.3981 34.8872C13.3981 25.729 20.2661 18.5137 28.9391 18.5137C35.6694 18.5137 41.3575 22.8839 43.37 29.5445C43.9437 31.5279 44.2211 33.5852 44.1932 35.6498C44.1932 36.1349 44.1932 36.6899 44.1233 37.87H21.5067ZM36.2851 31.9721C34.8859 27.6017 32.5375 25.5215 28.9298 25.5215C25.1844 25.5215 22.5468 27.8793 21.5067 31.9721H36.2851Z" fill="#00D586"/>
<path d="M72.1523 50.2972V48.3546C69.3072 50.5071 67.087 51.3373 63.8967 51.3373C54.8762 51.3373 47.7307 44.0542 47.7307 34.8961C47.7307 25.8009 54.8762 18.5225 63.8967 18.5225C67.087 18.5225 69.3072 19.355 72.1523 21.5053V19.5556H80.0627V50.2972H72.1523ZM55.7087 34.9053C55.7087 40.3858 59.1089 44.201 64.0343 44.201C68.9597 44.201 72.2922 40.3858 72.2922 34.9053C72.2922 29.355 68.962 25.6773 63.8967 25.6773C59.1182 25.6609 55.7087 29.4764 55.7087 34.889V34.9053Z" fill="#00D586"/>
<path d="M117.803 34.5403C117.803 46.8211 109.963 51.3314 101.712 51.3314C91.3013 51.329 85.4711 43.7661 85.4711 34.6103C85.4711 25.2446 92.001 18.5189 101.22 18.5189C106.838 18.5189 109.893 21.5016 109.893 21.5016V4.01099H117.801L117.803 34.5403ZM93.4515 34.8878C93.4515 40.3683 96.7165 44.1835 101.777 44.1835C107.05 44.1835 109.825 40.0907 109.825 34.6219C109.825 29.2091 106.632 25.6715 101.915 25.6715C96.8516 25.6598 93.4515 29.4074 93.4515 34.8878Z" fill="#00D586"/>
<path d="M133.978 9.07927C133.969 10.3948 133.437 11.6528 132.501 12.5765C131.564 13.5002 130.298 14.0139 128.983 14.0046C127.667 13.9954 126.409 13.4639 125.486 12.5271C124.562 11.5903 124.048 10.3249 124.057 9.0093C124.057 6.37405 126.278 4.22388 129.123 4.22388C130.406 4.2396 131.632 4.7562 132.539 5.66338C133.446 6.57055 133.963 7.79642 133.978 9.07927ZM132.927 50.2966H125.018V19.555H132.927V50.2966Z" fill="#00D586"/>
<path d="M170.161 42.4864C166.222 44.0556 161.854 44.1703 157.838 42.8098C153.823 41.4493 150.424 38.7027 148.251 35.0626C146.077 31.4226 145.272 27.1272 145.979 22.9471C146.687 18.767 148.86 14.9757 152.11 12.2532C155.359 9.53066 159.473 8.05514 163.712 8.09126C167.952 8.12739 172.04 9.67281 175.242 12.4503C178.445 15.2278 180.555 19.0557 181.19 23.2472C181.826 27.4387 180.948 31.7197 178.713 35.3221L183.957 40.5671C187.54 35.5561 189.148 29.4014 188.479 23.2787C187.81 17.1557 184.911 11.4939 180.332 7.37431C175.752 3.25472 169.816 0.966145 163.658 0.945695C157.498 0.925245 151.548 3.17436 146.942 7.26345C142.336 11.3526 139.397 16.995 138.688 23.1134C137.978 29.2316 139.547 35.3968 143.095 40.4315C146.643 45.466 151.922 49.0173 157.922 50.4069C163.923 51.7964 170.225 50.9269 175.625 47.9645L170.161 42.4864Z" fill="#00D586"/>
<path d="M184.148 40.2466C181.952 43.418 179.055 46.0421 175.683 47.9168L184.626 56.8604L192.629 48.7285L184.148 40.2466Z" fill="#00D586"/>
</g>
<defs>
<clipPath id="clip0_2666_666">
<rect width="193.73" height="56" fill="white" transform="translate(0 0.945557)"/>
</clipPath>
</defs>
</svg>
